# xmcd
#
# Track frame offsets: 
#        150
#        25465
#        50139
#        84939
#        102899
#        124314
#        148654
#        195969
#        219299
#        245194
#
# Disc length: 3995 seconds
#
# Revision: 0
# Processed by: cddbd v1.5.2PL0 Copyright (c) Steve Scherf et al.
# Submitted via: ExactAudioCopy v0.99pb4
#
DISCID=8e0f990a
DTITLE=Epica - The Classical Conspiracy - Epica Set
DYEAR=2009
DGENRE=Metal
TTITLE0=Never Enough
TTITLE1=Beyond Belief
TTITLE2=Cry For The Moon
TTITLE3=Safeguard To Paradise
TTITLE4=Blank Infinity
TTITLE5=Living A Lie
TTITLE6=The Phantom Agony
TTITLE7=Sancta Terra
TTITLE8=Illusive Consensus
TTITLE9=Consign To Oblivion
EXTD=
EXTT0=
EXTT1=
EXTT2=
EXTT3=
EXTT4=
EXTT5=
EXTT6=
EXTT7=
EXTT8=
EXTT9=
PLAYORDER=
